<svg xmlns="http://www.w3.org/2000/svg" xmlns:xlink="http://www.w3.org/1999/xlink" width="500" zoomAndPan="magnify" viewBox="0 0 375 374.999991" height="500" preserveAspectRatio="xMidYMid meet" version="1.0"><defs><clipPath id="2bfefd8784"><path d="M 41.070312 292 L 333.570312 292 L 333.570312 350.304688 L 41.070312 350.304688 Z M 41.070312 292 " clip-rule="nonzero"/></clipPath><clipPath id="ad4ded0e42"><path d="M 69 25 L 333.570312 25 L 333.570312 313 L 69 313 Z M 69 25 " clip-rule="nonzero"/></clipPath></defs><rect x="-37.5" width="450" fill="#ffffff" y="-37.499999" height="449.999989" fill-opacity="1"/><rect x="-37.5" width="450" fill="#ffffff" y="-37.499999" height="449.999989" fill-opacity="1"/><rect x="-37.5" width="450" fill="#004aad" y="-37.499999" height="449.999989" fill-opacity="1"/><g clip-path="url(#2bfefd8784)"><path fill="#ffffff" d="M 508.925781 292.632812 L 51.710938 292.632812 C 45.746094 292.632812 41.769531 296.613281 41.769531 302.578125 C 41.769531 329.421875 63.640625 350.304688 89.480469 350.304688 L 471.160156 350.304688 C 497.992188 350.304688 518.871094 328.429688 518.871094 302.578125 C 518.871094 297.605469 514.890625 292.632812 508.925781 292.632812 Z M 508.925781 292.632812 " fill-opacity="1" fill-rule="nonzero"/></g><path fill="#ffffff" d="M 311.128906 187.242188 L 285.289062 189.226562 L 297.21875 216.070312 L 287.273438 221.042969 L 275.347656 193.199219 L 256.464844 210.113281 L 256.464844 135.535156 Z M 311.128906 187.242188 " fill-opacity="1" fill-rule="nonzero"/><g clip-path="url(#ad4ded0e42)"><path fill="#ffffff" d="M 452.277344 25.167969 L 108.363281 25.167969 C 86.492188 25.167969 69.601562 42.074219 69.601562 63.941406 L 69.601562 273.742188 C 69.601562 295.621094 86.5 312.515625 108.363281 312.515625 L 452.277344 312.515625 C 474.144531 312.515625 491.035156 295.609375 491.035156 273.742188 L 491.035156 63.941406 C 491.035156 42.066406 474.136719 25.167969 452.277344 25.167969 Z M 452.277344 264.796875 C 452.277344 270.765625 448.296875 274.746094 442.332031 274.746094 L 118.304688 274.746094 C 112.339844 274.746094 108.363281 270.765625 108.363281 264.796875 L 108.363281 73.890625 C 108.363281 67.921875 112.339844 63.941406 118.304688 63.941406 L 442.332031 63.941406 C 448.296875 63.941406 452.277344 67.921875 452.277344 73.890625 Z M 452.277344 264.796875 " fill-opacity="1" fill-rule="nonzero"/></g></svg>