<svg xmlns="http://www.w3.org/2000/svg" xmlns:xlink="http://www.w3.org/1999/xlink" width="500" zoomAndPan="magnify" viewBox="0 0 375 374.999991" height="500" preserveAspectRatio="xMidYMid meet" version="1.0"><defs><g/><clipPath id="5750f21f5b"><path d="M 17.125 208 L 74.875 208 L 74.875 219.320312 L 17.125 219.320312 Z M 17.125 208 " clip-rule="nonzero"/></clipPath><clipPath id="aeb1607c40"><path d="M 22 155.570312 L 74.875 155.570312 L 74.875 212 L 22 212 Z M 22 155.570312 " clip-rule="nonzero"/></clipPath></defs><g clip-path="url(#5750f21f5b)"><path fill="#004aad" d="M 108.792969 208.027344 L 19.210938 208.027344 C 18.042969 208.027344 17.261719 208.804688 17.261719 209.972656 C 17.261719 215.230469 21.546875 219.320312 26.609375 219.320312 L 101.394531 219.320312 C 106.648438 219.320312 110.742188 215.035156 110.742188 209.972656 C 110.742188 209 109.960938 208.027344 108.792969 208.027344 Z M 108.792969 208.027344 " fill-opacity="1" fill-rule="nonzero"/></g><path fill="#004aad" d="M 70.039062 187.386719 L 64.976562 187.773438 L 67.3125 193.03125 L 65.363281 194.003906 L 63.027344 188.550781 L 59.328125 191.863281 L 59.328125 177.257812 Z M 70.039062 187.386719 " fill-opacity="1" fill-rule="nonzero"/><g clip-path="url(#aeb1607c40)"><path fill="#004aad" d="M 97.691406 155.644531 L 30.3125 155.644531 C 26.027344 155.644531 22.714844 158.953125 22.714844 163.238281 L 22.714844 204.328125 C 22.714844 208.613281 26.027344 211.921875 30.3125 211.921875 L 97.691406 211.921875 C 101.976562 211.921875 105.289062 208.609375 105.289062 204.328125 L 105.289062 163.238281 C 105.289062 158.953125 101.976562 155.644531 97.691406 155.644531 Z M 97.691406 202.574219 C 97.691406 203.742188 96.914062 204.523438 95.746094 204.523438 L 32.257812 204.523438 C 31.089844 204.523438 30.3125 203.742188 30.3125 202.574219 L 30.3125 165.183594 C 30.3125 164.015625 31.089844 163.238281 32.257812 163.238281 L 95.746094 163.238281 C 96.914062 163.238281 97.691406 164.015625 97.691406 165.183594 Z M 97.691406 202.574219 " fill-opacity="1" fill-rule="nonzero"/></g><g fill="#004aad" fill-opacity="1"><g transform="translate(97.055571, 190.78116)"><g><path d="M 2.488281 0 L 11.273438 0 C 19.363281 0 24.757812 -4.667969 24.757812 -12.238281 C 24.757812 -19.8125 19.328125 -24.480469 11.273438 -24.480469 L 2.488281 -24.480469 Z M 6.707031 -3.386719 L 6.707031 -21.125 L 11.273438 -21.125 C 16.664062 -21.125 20.398438 -17.773438 20.398438 -12.238281 C 20.398438 -6.707031 16.734375 -3.386719 11.273438 -3.386719 Z M 6.707031 -3.386719 "/></g></g></g><g fill="#004aad" fill-opacity="1"><g transform="translate(123.304161, 190.78116)"><g><path d="M 4.355469 -20.398438 C 5.773438 -20.398438 6.8125 -21.367188 6.8125 -22.75 C 6.8125 -24.132812 5.773438 -25.101562 4.355469 -25.101562 C 2.972656 -25.101562 1.9375 -24.132812 1.9375 -22.75 C 1.9375 -21.367188 2.972656 -20.398438 4.355469 -20.398438 Z M 2.386719 0 L 6.328125 0 L 6.328125 -17.566406 L 2.386719 -17.566406 Z M 2.386719 0 "/></g></g></g><g fill="#004aad" fill-opacity="1"><g transform="translate(132.007644, 190.78116)"><g><path d="M 10.960938 8.503906 C 16.492188 8.503906 20.191406 5.152344 20.191406 -0.0351562 L 20.191406 -17.566406 L 16.421875 -17.566406 L 16.421875 -14.347656 L 16.148438 -14.347656 C 14.832031 -16.699219 12.585938 -18.117188 9.578125 -18.117188 C 4.667969 -18.117188 1.246094 -14.488281 1.246094 -8.78125 C 1.246094 -3.285156 4.667969 0.414062 9.613281 0.414062 C 12.480469 0.414062 14.660156 -0.96875 16.007812 -3.179688 L 16.285156 -3.179688 L 16.285156 -0.171875 C 16.285156 3.113281 14.039062 5.429688 10.789062 5.429688 C 7.882812 5.429688 5.601562 3.734375 5.222656 1.347656 L 1.417969 1.796875 C 1.972656 5.914062 5.773438 8.503906 10.960938 8.503906 Z M 10.789062 -2.835938 C 7.539062 -2.835938 5.152344 -5.324219 5.152344 -8.78125 C 5.152344 -12.273438 7.46875 -14.765625 10.789062 -14.765625 C 14.039062 -14.765625 16.421875 -12.273438 16.421875 -8.78125 C 16.421875 -5.324219 14.074219 -2.835938 10.789062 -2.835938 Z M 10.789062 -2.835938 "/></g></g></g><g fill="#004aad" fill-opacity="1"><g transform="translate(154.457065, 190.78116)"><g><path d="M 4.355469 -20.398438 C 5.773438 -20.398438 6.8125 -21.367188 6.8125 -22.75 C 6.8125 -24.132812 5.773438 -25.101562 4.355469 -25.101562 C 2.972656 -25.101562 1.9375 -24.132812 1.9375 -22.75 C 1.9375 -21.367188 2.972656 -20.398438 4.355469 -20.398438 Z M 2.386719 0 L 6.328125 0 L 6.328125 -17.566406 L 2.386719 -17.566406 Z M 2.386719 0 "/></g></g></g><g fill="#004aad" fill-opacity="1"><g transform="translate(163.160547, 190.78116)"><g><path d="M 8.574219 0.378906 C 9.578125 0.378906 10.890625 0.207031 11.789062 -0.105469 L 11.789062 -2.972656 C 11.167969 -2.800781 10.339844 -2.695312 9.714844 -2.695312 C 8.265625 -2.695312 7.332031 -3.769531 7.332031 -5.359375 L 7.296875 -14.660156 L 11.546875 -14.660156 L 11.546875 -17.566406 L 7.296875 -17.566406 L 7.332031 -22.957031 L 4.148438 -22.957031 L 3.527344 -17.566406 L 0.691406 -17.566406 L 0.691406 -14.660156 L 3.386719 -14.660156 L 3.386719 -5.222656 C 3.386719 -1.867188 5.429688 0.378906 8.574219 0.378906 Z M 8.574219 0.378906 "/></g></g></g><g fill="#004aad" fill-opacity="1"><g transform="translate(175.870374, 190.78116)"><g><path d="M 8.988281 0 L 13.3125 0 L 13.3125 -9.199219 L 21.679688 -24.480469 L 17.046875 -24.480469 L 11.273438 -13.207031 L 10.996094 -13.207031 L 5.082031 -24.480469 L 0.519531 -24.480469 L 8.988281 -9.199219 Z M 8.988281 0 "/></g></g></g><g fill="#004aad" fill-opacity="1"><g transform="translate(198.008993, 190.78116)"><g><path d="M 10.753906 0.554688 C 16.457031 0.554688 20.332031 -3.144531 20.332031 -8.78125 C 20.332031 -14.417969 16.457031 -18.117188 10.753906 -18.117188 C 5.046875 -18.117188 1.210938 -14.453125 1.210938 -8.78125 C 1.210938 -3.144531 5.082031 0.554688 10.753906 0.554688 Z M 10.753906 -2.800781 C 7.46875 -2.800781 5.117188 -5.289062 5.117188 -8.78125 C 5.117188 -12.273438 7.46875 -14.765625 10.753906 -14.765625 C 14.074219 -14.765625 16.421875 -12.273438 16.421875 -8.78125 C 16.421875 -5.289062 14.074219 -2.800781 10.753906 -2.800781 Z M 10.753906 -2.800781 "/></g></g></g><g fill="#004aad" fill-opacity="1"><g transform="translate(219.491374, 190.78116)"><g><path d="M 8.644531 0.554688 C 11.167969 0.554688 13.140625 -0.726562 14.382812 -3.007812 L 14.660156 -3.007812 L 14.660156 0 L 18.601562 0 L 18.601562 -17.566406 L 14.660156 -17.566406 L 14.660156 -7.503906 C 14.660156 -4.773438 12.65625 -2.800781 10.128906 -2.800781 C 7.539062 -2.800781 5.914062 -4.804688 5.914062 -7.640625 L 5.914062 -17.566406 L 1.972656 -17.566406 L 1.972656 -6.984375 C 1.972656 -2.628906 4.632812 0.554688 8.644531 0.554688 Z M 8.644531 0.554688 "/></g></g></g><g fill="#004aad" fill-opacity="1"><g transform="translate(240.352072, 190.78116)"><g><path d="M 2.28125 0 L 6.1875 0 L 6.1875 -9.230469 C 6.1875 -12.414062 7.8125 -14.523438 10.304688 -14.523438 C 11.167969 -14.523438 12.238281 -14.28125 13.207031 -13.796875 L 13.207031 -17.425781 C 12.515625 -17.738281 11.6875 -17.910156 10.890625 -17.910156 C 8.78125 -17.910156 7.296875 -16.699219 6.464844 -14.695312 L 6.1875 -14.695312 L 6.1875 -17.566406 L 2.28125 -17.566406 Z M 2.28125 0 "/></g></g></g><g fill="#004aad" fill-opacity="1"><g transform="translate(254.33978, 190.78116)"><g><path d="M 2.488281 0 L 6.847656 0 L 6.847656 -10.40625 L 17.703125 -10.40625 L 17.703125 -13.761719 L 6.847656 -13.761719 L 6.847656 -20.710938 L 19.398438 -20.710938 L 19.398438 -24.480469 L 2.488281 -24.480469 Z M 2.488281 0 "/></g></g></g><g fill="#004aad" fill-opacity="1"><g transform="translate(274.786049, 190.78116)"><g><path d="M 10.753906 0.554688 C 16.457031 0.554688 20.332031 -3.144531 20.332031 -8.78125 C 20.332031 -14.417969 16.457031 -18.117188 10.753906 -18.117188 C 5.046875 -18.117188 1.210938 -14.453125 1.210938 -8.78125 C 1.210938 -3.144531 5.082031 0.554688 10.753906 0.554688 Z M 10.753906 -2.800781 C 7.46875 -2.800781 5.117188 -5.289062 5.117188 -8.78125 C 5.117188 -12.273438 7.46875 -14.765625 10.753906 -14.765625 C 14.074219 -14.765625 16.421875 -12.273438 16.421875 -8.78125 C 16.421875 -5.289062 14.074219 -2.800781 10.753906 -2.800781 Z M 10.753906 -2.800781 "/></g></g></g><g fill="#004aad" fill-opacity="1"><g transform="translate(296.26843, 190.78116)"><g><path d="M 10.753906 0.554688 C 16.457031 0.554688 20.332031 -3.144531 20.332031 -8.78125 C 20.332031 -14.417969 16.457031 -18.117188 10.753906 -18.117188 C 5.046875 -18.117188 1.210938 -14.453125 1.210938 -8.78125 C 1.210938 -3.144531 5.082031 0.554688 10.753906 0.554688 Z M 10.753906 -2.800781 C 7.46875 -2.800781 5.117188 -5.289062 5.117188 -8.78125 C 5.117188 -12.273438 7.46875 -14.765625 10.753906 -14.765625 C 14.074219 -14.765625 16.421875 -12.273438 16.421875 -8.78125 C 16.421875 -5.289062 14.074219 -2.800781 10.753906 -2.800781 Z M 10.753906 -2.800781 "/></g></g></g><g fill="#004aad" fill-opacity="1"><g transform="translate(317.750811, 190.78116)"><g><path d="M 9.613281 0.554688 C 12.585938 0.554688 14.796875 -0.898438 16.007812 -3.214844 L 16.285156 -3.214844 L 16.285156 0 L 20.191406 0 L 20.191406 -25.515625 L 16.285156 -25.515625 L 16.285156 -14.347656 L 16.007812 -14.347656 C 14.796875 -16.699219 12.585938 -18.117188 9.578125 -18.117188 C 4.667969 -18.117188 1.210938 -14.347656 1.210938 -8.78125 C 1.210938 -3.179688 4.632812 0.554688 9.613281 0.554688 Z M 10.789062 -2.800781 C 7.503906 -2.800781 5.152344 -5.324219 5.152344 -8.78125 C 5.152344 -12.238281 7.503906 -14.765625 10.789062 -14.765625 C 14.039062 -14.765625 16.421875 -12.238281 16.421875 -8.78125 C 16.421875 -5.324219 14.039062 -2.800781 10.789062 -2.800781 Z M 10.789062 -2.800781 "/></g></g></g><g fill="#004aad" fill-opacity="1"><g transform="translate(100.880775, 215.740139)"><g><path d="M 8 -4.15625 C 8 -3.320312 7.832031 -2.585938 7.5 -1.953125 C 7.175781 -1.316406 6.710938 -0.832031 6.109375 -0.5 C 5.503906 -0.164062 4.8125 0 4.03125 0 L 0.96875 0 L 0.96875 -8.15625 L 3.671875 -8.15625 C 5.054688 -8.15625 6.125 -7.804688 6.875 -7.109375 C 7.625 -6.421875 8 -5.4375 8 -4.15625 Z M 6.890625 -4.15625 C 6.890625 -5.175781 6.609375 -5.945312 6.046875 -6.46875 C 5.492188 -7 4.691406 -7.265625 3.640625 -7.265625 L 2.078125 -7.265625 L 2.078125 -0.890625 L 3.890625 -0.890625 C 4.492188 -0.890625 5.019531 -1.019531 5.46875 -1.28125 C 5.925781 -1.539062 6.273438 -1.914062 6.515625 -2.40625 C 6.765625 -2.90625 6.890625 -3.488281 6.890625 -4.15625 Z M 6.890625 -4.15625 "/></g></g></g><g fill="#004aad" fill-opacity="1"><g transform="translate(116.325513, 215.740139)"><g><path d="M 0.96875 0 L 0.96875 -8.15625 L 7.15625 -8.15625 L 7.15625 -7.25 L 2.078125 -7.25 L 2.078125 -4.640625 L 6.8125 -4.640625 L 6.8125 -3.75 L 2.078125 -3.75 L 2.078125 -0.90625 L 7.40625 -0.90625 L 7.40625 0 Z M 0.96875 0 "/></g></g></g><g fill="#004aad" fill-opacity="1"><g transform="translate(131.115823, 215.740139)"><g><path d="M 4.53125 0 L 3.375 0 L 0.046875 -8.15625 L 1.21875 -8.15625 L 3.46875 -2.421875 L 3.953125 -0.96875 L 4.453125 -2.421875 L 6.6875 -8.15625 L 7.859375 -8.15625 Z M 4.53125 0 "/></g></g></g><g fill="#004aad" fill-opacity="1"><g transform="translate(145.906135, 215.740139)"><g><path d="M 0.96875 0 L 0.96875 -8.15625 L 7.15625 -8.15625 L 7.15625 -7.25 L 2.078125 -7.25 L 2.078125 -4.640625 L 6.8125 -4.640625 L 6.8125 -3.75 L 2.078125 -3.75 L 2.078125 -0.90625 L 7.40625 -0.90625 L 7.40625 0 Z M 0.96875 0 "/></g></g></g><g fill="#004aad" fill-opacity="1"><g transform="translate(160.696444, 215.740139)"><g><path d="M 0.96875 0 L 0.96875 -8.15625 L 2.078125 -8.15625 L 2.078125 -0.90625 L 6.203125 -0.90625 L 6.203125 0 Z M 0.96875 0 "/></g></g></g><g fill="#004aad" fill-opacity="1"><g transform="translate(174.172109, 215.740139)"><g><path d="M 8.65625 -4.125 C 8.65625 -3.269531 8.488281 -2.519531 8.15625 -1.875 C 7.832031 -1.238281 7.363281 -0.75 6.75 -0.40625 C 6.144531 -0.0625 5.429688 0.109375 4.609375 0.109375 C 3.765625 0.109375 3.035156 -0.0546875 2.421875 -0.390625 C 1.816406 -0.734375 1.351562 -1.222656 1.03125 -1.859375 C 0.71875 -2.503906 0.5625 -3.257812 0.5625 -4.125 C 0.5625 -5.425781 0.914062 -6.441406 1.625 -7.171875 C 2.34375 -7.910156 3.335938 -8.28125 4.609375 -8.28125 C 5.441406 -8.28125 6.160156 -8.113281 6.765625 -7.78125 C 7.378906 -7.457031 7.847656 -6.976562 8.171875 -6.34375 C 8.492188 -5.71875 8.65625 -4.976562 8.65625 -4.125 Z M 7.53125 -4.125 C 7.53125 -5.132812 7.273438 -5.925781 6.765625 -6.5 C 6.253906 -7.082031 5.535156 -7.375 4.609375 -7.375 C 3.679688 -7.375 2.960938 -7.085938 2.453125 -6.515625 C 1.941406 -5.941406 1.6875 -5.144531 1.6875 -4.125 C 1.6875 -3.09375 1.941406 -2.273438 2.453125 -1.671875 C 2.972656 -1.078125 3.691406 -0.78125 4.609375 -0.78125 C 5.546875 -0.78125 6.265625 -1.070312 6.765625 -1.65625 C 7.273438 -2.238281 7.53125 -3.0625 7.53125 -4.125 Z M 7.53125 -4.125 "/></g></g></g><g fill="#004aad" fill-opacity="1"><g transform="translate(190.277066, 215.740139)"><g><path d="M 7.28125 -5.703125 C 7.28125 -4.929688 7.023438 -4.316406 6.515625 -3.859375 C 6.015625 -3.398438 5.332031 -3.171875 4.46875 -3.171875 L 2.078125 -3.171875 L 2.078125 0 L 0.96875 0 L 0.96875 -8.15625 L 4.40625 -8.15625 C 5.320312 -8.15625 6.03125 -7.941406 6.53125 -7.515625 C 7.03125 -7.085938 7.28125 -6.484375 7.28125 -5.703125 Z M 6.171875 -5.6875 C 6.171875 -6.738281 5.539062 -7.265625 4.28125 -7.265625 L 2.078125 -7.265625 L 2.078125 -4.046875 L 4.3125 -4.046875 C 5.550781 -4.046875 6.171875 -4.59375 6.171875 -5.6875 Z M 6.171875 -5.6875 "/></g></g></g><g fill="#004aad" fill-opacity="1"><g transform="translate(205.067375, 215.740139)"><g><path d="M 7.28125 -5.703125 C 7.28125 -4.929688 7.023438 -4.316406 6.515625 -3.859375 C 6.015625 -3.398438 5.332031 -3.171875 4.46875 -3.171875 L 2.078125 -3.171875 L 2.078125 0 L 0.96875 0 L 0.96875 -8.15625 L 4.40625 -8.15625 C 5.320312 -8.15625 6.03125 -7.941406 6.53125 -7.515625 C 7.03125 -7.085938 7.28125 -6.484375 7.28125 -5.703125 Z M 6.171875 -5.6875 C 6.171875 -6.738281 5.539062 -7.265625 4.28125 -7.265625 L 2.078125 -7.265625 L 2.078125 -4.046875 L 4.3125 -4.046875 C 5.550781 -4.046875 6.171875 -4.59375 6.171875 -5.6875 Z M 6.171875 -5.6875 "/></g></g></g><g fill="#004aad" fill-opacity="1"><g transform="translate(219.857685, 215.740139)"><g><path d="M 0.96875 0 L 0.96875 -8.15625 L 7.15625 -8.15625 L 7.15625 -7.25 L 2.078125 -7.25 L 2.078125 -4.640625 L 6.8125 -4.640625 L 6.8125 -3.75 L 2.078125 -3.75 L 2.078125 -0.90625 L 7.40625 -0.90625 L 7.40625 0 Z M 0.96875 0 "/></g></g></g><g fill="#004aad" fill-opacity="1"><g transform="translate(234.647994, 215.740139)"><g><path d="M 7.90625 0 L 7.90625 -5.4375 C 7.90625 -6.039062 7.925781 -6.625 7.96875 -7.1875 C 7.769531 -6.488281 7.597656 -5.945312 7.453125 -5.5625 L 5.34375 0 L 4.5625 0 L 2.4375 -5.5625 L 2.109375 -6.546875 L 1.921875 -7.1875 L 1.9375 -6.53125 L 1.953125 -5.4375 L 1.953125 0 L 0.96875 0 L 0.96875 -8.15625 L 2.421875 -8.15625 L 4.59375 -2.5 C 4.675781 -2.269531 4.75 -2.023438 4.8125 -1.765625 C 4.882812 -1.503906 4.9375 -1.316406 4.96875 -1.203125 C 5 -1.359375 5.0625 -1.59375 5.15625 -1.90625 C 5.25 -2.21875 5.316406 -2.414062 5.359375 -2.5 L 7.484375 -8.15625 L 8.90625 -8.15625 L 8.90625 0 Z M 7.90625 0 "/></g></g></g><g fill="#004aad" fill-opacity="1"><g transform="translate(251.407386, 215.740139)"><g><path d="M 0.96875 0 L 0.96875 -8.15625 L 7.15625 -8.15625 L 7.15625 -7.25 L 2.078125 -7.25 L 2.078125 -4.640625 L 6.8125 -4.640625 L 6.8125 -3.75 L 2.078125 -3.75 L 2.078125 -0.90625 L 7.40625 -0.90625 L 7.40625 0 Z M 0.96875 0 "/></g></g></g><g fill="#004aad" fill-opacity="1"><g transform="translate(266.197703, 215.740139)"><g><path d="M 6.265625 0 L 1.90625 -6.953125 L 1.921875 -6.390625 L 1.953125 -5.421875 L 1.953125 0 L 0.96875 0 L 0.96875 -8.15625 L 2.265625 -8.15625 L 6.671875 -1.15625 C 6.617188 -1.914062 6.59375 -2.46875 6.59375 -2.8125 L 6.59375 -8.15625 L 7.59375 -8.15625 L 7.59375 0 Z M 6.265625 0 "/></g></g></g><g fill="#004aad" fill-opacity="1"><g transform="translate(281.642448, 215.740139)"><g><path d="M 4.171875 -7.25 L 4.171875 0 L 3.0625 0 L 3.0625 -7.25 L 0.265625 -7.25 L 0.265625 -8.15625 L 6.96875 -8.15625 L 6.96875 -7.25 Z M 4.171875 -7.25 "/></g></g></g></svg>